<svg viewBox="0 0 24 24" xmlns="http://www.w3.org/2000/svg" stroke-width="1.5"><path d="M8.25 18.75L2.447 18.75" fill="none" stroke="currentColor" stroke-width="1.5px" vector-effect="non-scaling-stroke" stroke-linecap="round" stroke-linejoin="round"></path><path d="M20.25,8.25v-3a1.5,1.5,0,0,0-1.5-1.5H8.25V2.25A1.5,1.5,0,0,0,6.75.75H2.25a1.5,1.5,0,0,0-1.5,1.5v14.8a1.7,1.7,0,0,0,3.336.438L6.437,9.334A1.5,1.5,0,0,1,7.879,8.25H12" fill="none" stroke="currentColor" stroke-width="1.5px" vector-effect="non-scaling-stroke" stroke-linecap="round" stroke-linejoin="round"></path><path d="M15.750 16.500 A1.500 1.500 0 1 0 18.750 16.500 A1.500 1.500 0 1 0 15.750 16.500 Z" fill="none" stroke="currentColor" stroke-width="1.5px" vector-effect="non-scaling-stroke" stroke-linecap="round" stroke-linejoin="round"></path><path d="M18.524,10.7l.442,1.453a.994.994,0,0,0,1.174.681l1.472-.341a1.339,1.339,0,0,1,1.275,2.218l-1.031,1.111a1,1,0,0,0,0,1.362l1.031,1.111a1.339,1.339,0,0,1-1.275,2.218l-1.472-.341a.994.994,0,0,0-1.174.681L18.524,22.3a1.33,1.33,0,0,1-2.548,0l-.442-1.453a.994.994,0,0,0-1.174-.681l-1.472.341a1.339,1.339,0,0,1-1.275-2.218l1.031-1.111a1,1,0,0,0,0-1.362l-1.031-1.111a1.339,1.339,0,0,1,1.275-2.218l1.472.341a.994.994,0,0,0,1.174-.681l.442-1.453A1.33,1.33,0,0,1,18.524,10.7Z" fill="none" stroke="currentColor" stroke-width="1.5px" vector-effect="non-scaling-stroke" stroke-linecap="round" stroke-linejoin="round"></path></svg>
