<svg viewBox="0 0 24 24" xmlns="http://www.w3.org/2000/svg" stroke-width="1.5"><path d="M4.7,8.78a6.851,6.851,0,0,0,7.642,1.536" fill="none" stroke="currentColor" stroke-width="1.5px" vector-effect="non-scaling-stroke" stroke-linecap="round" stroke-linejoin="round"></path><path d="M4.124 10.875 A4.125 4.125 0 1 0 12.374 10.875 A4.125 4.125 0 1 0 4.124 10.875 Z" fill="none" stroke="currentColor" stroke-width="1.5px" vector-effect="non-scaling-stroke" stroke-linecap="round" stroke-linejoin="round"></path><path d="M0.749 12.000 A11.250 11.250 0 1 0 23.249 12.000 A11.250 11.250 0 1 0 0.749 12.000 Z" fill="none" stroke="currentColor" stroke-width="1.5px" vector-effect="non-scaling-stroke" stroke-linecap="round" stroke-linejoin="round"></path><path d="M14.987,22.848A6.749,6.749,0,0,0,3.1,18.884" fill="none" stroke="currentColor" stroke-width="1.5px" vector-effect="non-scaling-stroke" stroke-linecap="round" stroke-linejoin="round"></path><path d="M14.999 13.125 A2.625 2.625 0 1 0 20.249 13.125 A2.625 2.625 0 1 0 14.999 13.125 Z" fill="none" stroke="currentColor" stroke-width="1.5px" vector-effect="non-scaling-stroke" stroke-linecap="round" stroke-linejoin="round"></path><path d="M21.274,18.368a4.5,4.5,0,0,0-7.719.709" fill="none" stroke="currentColor" stroke-width="1.5px" vector-effect="non-scaling-stroke" stroke-linecap="round" stroke-linejoin="round"></path></svg>
