<svg xmlns="http://www.w3.org/2000/svg" fill="none" viewBox="0 0 24 24" stroke-width="1.5"><path stroke="currentColor" stroke-width="1.5px" vector-effect="non-scaling-stroke" stroke-linecap="round" stroke-linejoin="round" d="M20.25 18.75V20.25C20.25 20.6478 20.092 21.0294 19.8107 21.3107C19.5294 21.592 19.1478 21.75 18.75 21.75H14.25"></path><path stroke="currentColor" stroke-width="1.5px" vector-effect="non-scaling-stroke" stroke-linecap="round" stroke-linejoin="round" d="M14.25 3.75H18.75C19.1478 3.75 19.5294 3.90804 19.8107 4.18934C20.092 4.47064 20.25 4.85218 20.25 5.25V6.75"></path><path stroke="currentColor" stroke-width="1.5px" vector-effect="non-scaling-stroke" stroke-linecap="round" stroke-linejoin="round" d="M10.39 23.24L1.39004 22C1.21075 21.9734 1.04714 21.8828 0.929485 21.7449C0.811829 21.607 0.748085 21.4312 0.750044 21.25V3.71996C0.752918 3.55104 0.812743 3.38803 0.919826 3.25735C1.02691 3.12667 1.17498 3.03598 1.34004 2.99996L10.34 0.779962C10.4493 0.7561 10.5625 0.756981 10.6714 0.782539C10.7803 0.808096 10.8821 0.857684 10.9694 0.927671C11.0566 0.997659 11.1271 1.08627 11.1757 1.18702C11.2242 1.28778 11.2496 1.39812 11.25 1.50996V22.51C11.25 22.6173 11.2266 22.7233 11.1816 22.8207C11.1365 22.9181 11.0707 23.0045 10.9889 23.0739C10.9071 23.1434 10.8112 23.1942 10.7078 23.2229C10.6043 23.2515 10.4959 23.2574 10.39 23.24V23.24Z"></path><path stroke="currentColor" stroke-width="1.5px" vector-effect="non-scaling-stroke" stroke-linecap="round" stroke-linejoin="round" d="M20.25 9.75L23.25 12.75H15"></path><path stroke="currentColor" stroke-width="1.5px" vector-effect="non-scaling-stroke" stroke-linecap="round" stroke-linejoin="round" d="M20.25 15.75L23.25 12.75"></path><path stroke="currentColor" stroke-width="1.5px" vector-effect="non-scaling-stroke" d="M7.375 12.3442C7.16789 12.3442 7 12.1763 7 11.9692C7 11.7621 7.16789 11.5942 7.375 11.5942"></path><path stroke="currentColor" stroke-width="1.5px" vector-effect="non-scaling-stroke" d="M7.375 12.3442C7.58211 12.3442 7.75 12.1763 7.75 11.9692C7.75 11.7621 7.58211 11.5942 7.375 11.5942"></path></svg>
