<svg viewBox="0 0 24 24" xmlns="http://www.w3.org/2000/svg" stroke-width="1.5"><path d="M11.250 17.250 A6.000 6.000 0 1 0 23.250 17.250 A6.000 6.000 0 1 0 11.250 17.250 Z" fill="none" stroke="currentColor" stroke-width="1.5px" vector-effect="non-scaling-stroke" stroke-linecap="round" stroke-linejoin="round"></path><path d="M17.25 14.25L17.25 20.25" fill="none" stroke="currentColor" stroke-width="1.5px" vector-effect="non-scaling-stroke" stroke-linecap="round" stroke-linejoin="round"></path><path d="M14.25 17.25L20.25 17.25" fill="none" stroke="currentColor" stroke-width="1.5px" vector-effect="non-scaling-stroke" stroke-linecap="round" stroke-linejoin="round"></path><path d="M3.000 3.750 A3.000 3.000 0 1 0 9.000 3.750 A3.000 3.000 0 1 0 3.000 3.750 Z" fill="none" stroke="currentColor" stroke-width="1.5px" vector-effect="non-scaling-stroke" stroke-linecap="round" stroke-linejoin="round"></path><path d="M10.555,10.888A5.251,5.251,0,0,0,.75,13.5v2.25H3l.75,7.5h4.5l.323-3.233" fill="none" stroke="currentColor" stroke-width="1.5px" vector-effect="non-scaling-stroke" stroke-linecap="round" stroke-linejoin="round"></path><path d="M13.875 3.375 A2.625 2.625 0 1 0 19.125 3.375 A2.625 2.625 0 1 0 13.875 3.375 Z" fill="none" stroke="currentColor" stroke-width="1.5px" vector-effect="non-scaling-stroke" stroke-linecap="round" stroke-linejoin="round"></path><path d="M20.4,9a4.5,4.5,0,0,0-7.285-.71" fill="none" stroke="currentColor" stroke-width="1.5px" vector-effect="non-scaling-stroke" stroke-linecap="round" stroke-linejoin="round"></path></svg>
