<svg xmlns="http://www.w3.org/2000/svg" fill="none" viewBox="0 0 24 24" stroke-width="1.5"><path stroke="currentColor" stroke-width="1.5px" vector-effect="non-scaling-stroke" stroke-linecap="round" stroke-linejoin="round" d="M5.2345 22.5537H18.7656"></path><path stroke="currentColor" stroke-width="1.5px" vector-effect="non-scaling-stroke" stroke-linecap="round" stroke-linejoin="round" d="M12 19.7319V22.5536"></path><path stroke="currentColor" stroke-width="1.5px" vector-effect="non-scaling-stroke" stroke-linecap="round" stroke-linejoin="round" d="M0.885193 15.8662H23.1148"></path><path stroke="currentColor" stroke-width="1.5px" vector-effect="non-scaling-stroke" stroke-linecap="round" stroke-linejoin="round" d="M9.07031 11.2451H16.0662"></path><path stroke="currentColor" stroke-width="1.5px" vector-effect="non-scaling-stroke" stroke-linecap="round" stroke-linejoin="round" d="M21.665 2.33496H2.33495C1.53427 2.33496 0.885193 2.98404 0.885193 3.78472V18.2823C0.885193 19.083 1.53427 19.732 2.33495 19.732H21.665C22.4657 19.732 23.1148 19.083 23.1148 18.2823V3.78472C23.1148 2.98404 22.4657 2.33496 21.665 2.33496Z"></path><path stroke="currentColor" stroke-width="1.5px" vector-effect="non-scaling-stroke" stroke-linecap="round" d="M6.41241 5.71777L9.0703 8.37566"></path><path stroke="currentColor" stroke-width="1.5px" vector-effect="non-scaling-stroke" stroke-linecap="round" d="M9.07031 5.71777L6.41243 8.37566"></path><path stroke="currentColor" stroke-width="1.5px" vector-effect="non-scaling-stroke" stroke-linecap="round" d="M14.9297 5.71777L17.5876 8.37566"></path><path stroke="currentColor" stroke-width="1.5px" vector-effect="non-scaling-stroke" stroke-linecap="round" d="M17.5876 5.71777L14.9297 8.37566"></path><path stroke="currentColor" stroke-width="1.5px" vector-effect="non-scaling-stroke" stroke-linecap="round" d="M13.3478 11.2451V12.3324C13.3478 13.0831 13.9563 13.6916 14.707 13.6916V13.6916C15.4576 13.6916 16.0661 13.0831 16.0661 12.3324V11.2451"></path></svg>
