<svg xmlns="http://www.w3.org/2000/svg" fill="none" viewBox="0 0 24 24" stroke-width="1.5"><path stroke="currentColor" stroke-width="1.5px" vector-effect="non-scaling-stroke" stroke-linecap="round" stroke-linejoin="round" d="M21.2764 22.0088C22.355 22.0088 23.2294 21.1344 23.2294 20.0559V3.94415C23.2294 2.86557 22.355 1.99121 21.2764 1.99121H2.72356C1.64499 1.99121 0.77063 2.86557 0.77063 3.94415V20.0559C0.77063 21.1344 1.64499 22.0088 2.72356 22.0088"></path><path stroke="currentColor" stroke-width="1.5px" vector-effect="non-scaling-stroke" stroke-linecap="round" stroke-linejoin="round" d="M0.77063 6.87354H23.2294"></path><path stroke="currentColor" stroke-width="1.5px" vector-effect="non-scaling-stroke" stroke-linecap="round" d="M10.0471 4.67671C9.91227 4.67671 9.80298 4.56742 9.80298 4.43259C9.80298 4.29777 9.91227 4.18848 10.0471 4.18848"></path><path stroke="currentColor" stroke-width="1.5px" vector-effect="non-scaling-stroke" stroke-linecap="round" d="M10.0471 4.67671C10.1819 4.67671 10.2912 4.56742 10.2912 4.43259C10.2912 4.29777 10.1819 4.18848 10.0471 4.18848"></path><path stroke="currentColor" stroke-width="1.5px" vector-effect="non-scaling-stroke" stroke-linecap="round" d="M7.11765 4.67671C6.98283 4.67671 6.87354 4.56742 6.87354 4.43259C6.87354 4.29777 6.98283 4.18848 7.11765 4.18848"></path><path stroke="currentColor" stroke-width="1.5px" vector-effect="non-scaling-stroke" stroke-linecap="round" d="M7.11764 4.67671C7.25246 4.67671 7.36176 4.56742 7.36176 4.43259C7.36176 4.29777 7.25246 4.18848 7.11764 4.18848"></path><path stroke="currentColor" stroke-width="1.5px" vector-effect="non-scaling-stroke" stroke-linecap="round" d="M4.18827 4.67671C4.05345 4.67671 3.94415 4.56742 3.94415 4.43259C3.94415 4.29777 4.05345 4.18848 4.18827 4.18848"></path><path stroke="currentColor" stroke-width="1.5px" vector-effect="non-scaling-stroke" stroke-linecap="round" d="M4.18826 4.67671C4.32308 4.67671 4.43237 4.56742 4.43237 4.43259C4.43237 4.29777 4.32308 4.18848 4.18826 4.18848"></path><path stroke="currentColor" stroke-width="1.5px" vector-effect="non-scaling-stroke" stroke-linecap="round" stroke-linejoin="round" d="M10.1973 10.8735V14.4789C10.1973 15.4745 11.0044 16.2816 12 16.2816C12.9956 16.2816 13.8027 15.4745 13.8027 14.4789V10.8735C13.8027 9.8779 12.9956 9.0708 12 9.0708C11.0044 9.0708 10.1973 9.8779 10.1973 10.8735Z"></path><path stroke="currentColor" stroke-width="1.5px" vector-effect="non-scaling-stroke" stroke-linecap="round" stroke-linejoin="round" d="M7.45802 9.07031L3.8526 14.4784H8.65982"></path><path stroke="currentColor" stroke-width="1.5px" vector-effect="non-scaling-stroke" stroke-linecap="round" stroke-linejoin="round" d="M7.45801 9.07031L7.45801 16.2811"></path><path stroke="currentColor" stroke-width="1.5px" vector-effect="non-scaling-stroke" stroke-linecap="round" stroke-linejoin="round" d="M18.9456 9.07031L15.3401 14.4784H20.1474"></path><path stroke="currentColor" stroke-width="1.5px" vector-effect="non-scaling-stroke" stroke-linecap="round" stroke-linejoin="round" d="M18.9456 9.07031L18.9456 16.2811"></path><path stroke="currentColor" stroke-width="1.5px" vector-effect="non-scaling-stroke" stroke-linecap="round" d="M5.50623 18.4785L8.40511 21.3774"></path><path stroke="currentColor" stroke-width="1.5px" vector-effect="non-scaling-stroke" stroke-linecap="round" d="M8.40509 18.4785L5.5062 21.3774"></path><path stroke="currentColor" stroke-width="1.5px" vector-effect="non-scaling-stroke" stroke-linecap="round" d="M15.5667 18.4785L18.4656 21.3774"></path><path stroke="currentColor" stroke-width="1.5px" vector-effect="non-scaling-stroke" stroke-linecap="round" d="M18.4656 18.4785L15.5667 21.3774"></path><path stroke="currentColor" stroke-width="1.5px" vector-effect="non-scaling-stroke" stroke-linecap="round" d="M10.5506 18.4785L13.4495 21.3774"></path><path stroke="currentColor" stroke-width="1.5px" vector-effect="non-scaling-stroke" stroke-linecap="round" d="M13.4495 18.4785L10.5506 21.3774"></path></svg>
