<svg xmlns="http://www.w3.org/2000/svg" fill="none" viewBox="0 0 24 24" stroke-width="1.5"><path stroke="currentColor" stroke-width="1.5px" vector-effect="non-scaling-stroke" stroke-linecap="round" stroke-linejoin="round" d="M11.6914 4.66455V7.4855"></path><path stroke="currentColor" stroke-width="1.5px" vector-effect="non-scaling-stroke" stroke-linecap="round" stroke-linejoin="round" d="M17.7309 11.4203C17.9356 11.7274 17.8333 12.0345 17.7309 12.3416C17.5262 12.6487 17.2191 12.7511 16.912 12.7511H6.57311C6.26602 12.7511 5.95892 12.5463 5.75419 12.3416C5.54946 12.0345 5.54946 11.7274 5.75419 11.4203L10.9748 1.59328C11.0772 1.38855 11.1795 1.28618 11.3843 1.18382C11.8961 0.979089 12.4079 1.08145 12.715 1.59328L17.7309 11.4203Z"></path><path stroke="currentColor" stroke-width="1.5px" vector-effect="non-scaling-stroke" d="M11.6913 10.2945C11.55 10.2945 11.4354 10.18 11.4354 10.0386C11.4354 9.89729 11.55 9.78271 11.6913 9.78271"></path><path stroke="currentColor" stroke-width="1.5px" vector-effect="non-scaling-stroke" d="M11.6914 10.2945C11.8327 10.2945 11.9473 10.18 11.9473 10.0386C11.9473 9.89729 11.8327 9.78271 11.6914 9.78271"></path><path stroke="currentColor" stroke-width="1.5px" vector-effect="non-scaling-stroke" stroke-linecap="round" stroke-linejoin="round" d="M9.79572 17.1483V20.9001C9.79572 21.9361 10.6356 22.776 11.6716 22.776C12.7076 22.776 13.5475 21.9361 13.5475 20.9001V17.1483C13.5475 16.1123 12.7076 15.2725 11.6716 15.2725C10.6356 15.2725 9.79572 16.1123 9.79572 17.1483Z"></path><path stroke="currentColor" stroke-width="1.5px" vector-effect="non-scaling-stroke" stroke-linecap="round" stroke-linejoin="round" d="M19.1496 15.2764L15.4 20.9007H20.3994"></path><path stroke="currentColor" stroke-width="1.5px" vector-effect="non-scaling-stroke" stroke-linecap="round" stroke-linejoin="round" d="M19.1496 15.2764L19.1496 22.7755"></path><path stroke="currentColor" stroke-width="1.5px" vector-effect="non-scaling-stroke" stroke-linecap="round" stroke-linejoin="round" d="M6.79997 15.2764L3.05042 20.9007H8.04983"></path><path stroke="currentColor" stroke-width="1.5px" vector-effect="non-scaling-stroke" stroke-linecap="round" stroke-linejoin="round" d="M6.79999 15.2764L6.79999 22.7755"></path></svg>
