<svg xmlns="http://www.w3.org/2000/svg" fill="none" viewBox="0 0 24 24" stroke-width="1.5"><path stroke="currentColor" stroke-width="1.5px" vector-effect="non-scaling-stroke" stroke-linecap="round" stroke-linejoin="round" d="M4.5 1.06H11.379C11.7765 1.06008 12.1578 1.21798 12.439 1.499L22.5 11.56"></path><path stroke="currentColor" stroke-width="1.5px" vector-effect="non-scaling-stroke" stroke-linecap="round" stroke-linejoin="round" d="M9.129 4.06H3C2.60218 4.06 2.22064 4.21803 1.93934 4.49934C1.65804 4.78064 1.5 5.16217 1.5 5.56V11.688C1.49991 11.885 1.53863 12.0801 1.61396 12.2622C1.68928 12.4442 1.79973 12.6096 1.939 12.749L11.689 22.499C11.8283 22.6384 11.9937 22.749 12.1758 22.8244C12.3578 22.8998 12.5529 22.9387 12.75 22.9387C12.9471 22.9387 13.1422 22.8998 13.3242 22.8244C13.5063 22.749 13.6717 22.6384 13.811 22.499L19.939 16.37C20.2202 16.0887 20.3782 15.7072 20.3782 15.3095C20.3782 14.9118 20.2202 14.5303 19.939 14.249L10.189 4.5C9.90797 4.21861 9.52669 4.06035 9.129 4.06V4.06Z"></path><path stroke="currentColor" stroke-width="1.5px" vector-effect="non-scaling-stroke" d="M6 8.935C5.79289 8.935 5.625 8.7671 5.625 8.56C5.625 8.35289 5.79289 8.185 6 8.185"></path><path stroke="currentColor" stroke-width="1.5px" vector-effect="non-scaling-stroke" d="M6 8.935C6.20711 8.935 6.375 8.7671 6.375 8.56C6.375 8.35289 6.20711 8.185 6 8.185"></path></svg>
