<svg viewBox="0 0 24 24" xmlns="http://www.w3.org/2000/svg" stroke-width="1.5"><path d="M1.061,2.56V8.817a3,3,0,0,0,.878,2.121L13.5,22.5a1.5,1.5,0,0,0,2.121,0L22.5,15.62a1.5,1.5,0,0,0,0-2.121L10.939,1.938A3,3,0,0,0,8.818,1.06H2.561A1.5,1.5,0,0,0,1.061,2.56Z" fill="none" stroke="currentColor" stroke-width="1.5px" vector-effect="non-scaling-stroke" stroke-linecap="round" stroke-linejoin="round"></path><path d="M4.811 6.310 A1.500 1.500 0 1 0 7.811 6.310 A1.500 1.500 0 1 0 4.811 6.310 Z" fill="none" stroke="currentColor" stroke-width="1.5px" vector-effect="non-scaling-stroke" stroke-linecap="round" stroke-linejoin="round"></path></svg>
