<svg xmlns="http://www.w3.org/2000/svg" fill="none" viewBox="0 0 24 24" stroke-width="1.5"><path stroke="currentColor" stroke-width="1.5px" vector-effect="non-scaling-stroke" stroke-linecap="round" stroke-linejoin="round" d="M10.5229 2.25V13.5H21.773C21.773 12.0226 21.482 10.5597 20.9166 9.19481C20.3512 7.8299 19.5226 6.58971 18.4779 5.54505C17.4332 4.50039 16.1931 3.67172 14.8281 3.10636C13.4632 2.54099 12.0003 2.25 10.5229 2.25V2.25Z"></path><path stroke="currentColor" stroke-width="1.5px" vector-effect="non-scaling-stroke" d="M16.0913 8.30713C15.8842 8.30713 15.7163 8.13924 15.7163 7.93213C15.7163 7.72502 15.8842 7.55713 16.0913 7.55713"></path><path stroke="currentColor" stroke-width="1.5px" vector-effect="non-scaling-stroke" d="M16.0913 8.30713C16.2984 8.30713 16.4663 8.13924 16.4663 7.93213C16.4663 7.72502 16.2984 7.55713 16.0913 7.55713"></path><path stroke="currentColor" stroke-width="1.5px" vector-effect="non-scaling-stroke" d="M4.95459 8.30713C4.74748 8.30713 4.57959 8.13924 4.57959 7.93213C4.57959 7.72502 4.74748 7.55713 4.95459 7.55713"></path><path stroke="currentColor" stroke-width="1.5px" vector-effect="non-scaling-stroke" d="M4.95459 8.30713C5.1617 8.30713 5.32959 8.13924 5.32959 7.93213C5.32959 7.72502 5.1617 7.55713 4.95459 7.55713"></path><path stroke="currentColor" stroke-width="1.5px" vector-effect="non-scaling-stroke" d="M2.64795 13.875C2.44084 13.875 2.27295 13.7071 2.27295 13.5C2.27295 13.2929 2.44084 13.125 2.64795 13.125"></path><path stroke="currentColor" stroke-width="1.5px" vector-effect="non-scaling-stroke" d="M2.64795 13.875C2.85506 13.875 3.02295 13.7071 3.02295 13.5C3.02295 13.2929 2.85506 13.125 2.64795 13.125"></path><g><path stroke="currentColor" stroke-width="1.5px" vector-effect="non-scaling-stroke" d="M4.95435 19.4441C4.74724 19.4441 4.57935 19.2762 4.57935 19.0691C4.57935 18.862 4.74724 18.6941 4.95435 18.6941"></path><path stroke="currentColor" stroke-width="1.5px" vector-effect="non-scaling-stroke" d="M4.95435 19.4441C5.16145 19.4441 5.32935 19.2762 5.32935 19.0691C5.32935 18.862 5.16145 18.6941 4.95435 18.6941"></path></g><g><path stroke="currentColor" stroke-width="1.5px" vector-effect="non-scaling-stroke" d="M10.5229 21.75C10.3158 21.75 10.1479 21.5821 10.1479 21.375C10.1479 21.1679 10.3158 21 10.5229 21"></path><path stroke="currentColor" stroke-width="1.5px" vector-effect="non-scaling-stroke" d="M10.5229 21.75C10.7301 21.75 10.8979 21.5821 10.8979 21.375C10.8979 21.1679 10.7301 21 10.5229 21"></path></g><g><path stroke="currentColor" stroke-width="1.5px" vector-effect="non-scaling-stroke" d="M16.0913 19.444C15.8842 19.444 15.7163 19.2761 15.7163 19.069C15.7163 18.8619 15.8842 18.694 16.0913 18.694"></path><path stroke="currentColor" stroke-width="1.5px" vector-effect="non-scaling-stroke" d="M16.0913 19.444C16.2984 19.444 16.4663 19.2761 16.4663 19.069C16.4663 18.8619 16.2984 18.694 16.0913 18.694"></path></g></svg>
