<svg viewBox="0 0 24 24" xmlns="http://www.w3.org/2000/svg" stroke-width="1.5"><path d="M22.631,14.87,15,22.5l-3.75.75L12,19.5l7.631-7.63a2.115,2.115,0,0,1,2.991,0l.009.009A2.115,2.115,0,0,1,22.631,14.87Z" fill="none" stroke="currentColor" stroke-width="1.5px" vector-effect="non-scaling-stroke" stroke-linecap="round" stroke-linejoin="round"></path><path d="M8.25,20.25h-6a1.5,1.5,0,0,1-1.5-1.5V2.25A1.5,1.5,0,0,1,2.25.75H12.879a1.5,1.5,0,0,1,1.06.44l2.872,2.871a1.5,1.5,0,0,1,.439,1.061V8.25" fill="none" stroke="currentColor" stroke-width="1.5px" vector-effect="non-scaling-stroke" stroke-linecap="round" stroke-linejoin="round"></path><path d="M3.750 9.750 A4.500 4.500 0 1 0 12.750 9.750 A4.500 4.500 0 1 0 3.750 9.750 Z" fill="none" stroke="currentColor" stroke-width="1.5px" vector-effect="non-scaling-stroke" stroke-linecap="round" stroke-linejoin="round"></path><path d="M9.75 9.75L8.25 9.75 8.25 8.25" fill="none" stroke="currentColor" stroke-width="1.5px" vector-effect="non-scaling-stroke" stroke-linecap="round" stroke-linejoin="round"></path></svg>
