<svg xmlns="http://www.w3.org/2000/svg" fill="none" viewBox="0 0 24 24" stroke-width="1.5"><path stroke="currentColor" stroke-width="1.5px" vector-effect="non-scaling-stroke" stroke-linecap="round" stroke-linejoin="round" d="M2.50146 14.1875V3.1875C2.50146 2.65707 2.71218 2.14836 3.08725 1.77329C3.46232 1.39821 3.97103 1.1875 4.50146 1.1875H19.5015C20.0319 1.1875 20.5406 1.39821 20.9157 1.77329C21.2908 2.14836 21.5015 2.65707 21.5015 3.1875V14.1875"></path><path stroke="currentColor" stroke-width="1.5px" vector-effect="non-scaling-stroke" stroke-linecap="round" stroke-linejoin="round" d="M2.49854 6.18359H21.4985"></path><path stroke="currentColor" stroke-width="1.5px" vector-effect="non-scaling-stroke" d="M9.00146 3.93311C8.86339 3.93311 8.75146 3.82118 8.75146 3.68311C8.75146 3.54503 8.86339 3.43311 9.00146 3.43311"></path><path stroke="currentColor" stroke-width="1.5px" vector-effect="non-scaling-stroke" d="M9.00146 3.93311C9.13954 3.93311 9.25146 3.82118 9.25146 3.68311C9.25146 3.54503 9.13954 3.43311 9.00146 3.43311"></path><path stroke="currentColor" stroke-width="1.5px" vector-effect="non-scaling-stroke" d="M6.00146 3.93311C5.86339 3.93311 5.75146 3.82118 5.75146 3.68311C5.75146 3.54503 5.86339 3.43311 6.00146 3.43311"></path><path stroke="currentColor" stroke-width="1.5px" vector-effect="non-scaling-stroke" d="M6.00146 3.93311C6.13954 3.93311 6.25146 3.82118 6.25146 3.68311C6.25146 3.54503 6.13954 3.43311 6.00146 3.43311"></path><path stroke="currentColor" stroke-width="1.5px" vector-effect="non-scaling-stroke" d="M11.9985 3.93311C11.8605 3.93311 11.7485 3.82118 11.7485 3.68311C11.7485 3.54503 11.8605 3.43311 11.9985 3.43311"></path><path stroke="currentColor" stroke-width="1.5px" vector-effect="non-scaling-stroke" d="M11.9985 3.93311C12.1366 3.93311 12.2485 3.82118 12.2485 3.68311C12.2485 3.54503 12.1366 3.43311 11.9985 3.43311"></path><path stroke="currentColor" stroke-width="1.5px" vector-effect="non-scaling-stroke" stroke-linecap="round" stroke-linejoin="round" d="M8.28927 9.8125H5.63444L5.36896 12.7328L5.98245 12.4261C6.27736 12.2786 6.60255 12.2018 6.93227 12.2018H6.96186C7.84159 12.2018 8.55475 12.915 8.55475 13.7947V14.5912C8.55475 15.4709 7.84159 16.1841 6.96186 16.1841C6.2683 16.1841 5.58763 15.7408 5.36896 15.1222"></path><path stroke="currentColor" stroke-width="1.5px" vector-effect="non-scaling-stroke" stroke-linecap="round" stroke-linejoin="round" d="M10.5306 11.4054V14.5912C10.5306 15.4709 11.2438 16.1841 12.1235 16.1841C13.0033 16.1841 13.7164 15.4709 13.7164 14.5912V11.4054C13.7164 10.5257 13.0033 9.8125 12.1235 9.8125C11.2438 9.8125 10.5306 10.5257 10.5306 11.4054Z"></path><path stroke="currentColor" stroke-width="1.5px" vector-effect="non-scaling-stroke" stroke-linecap="round" stroke-linejoin="round" d="M15.6924 11.4054V14.5912C15.6924 15.4709 16.4055 16.1841 17.2853 16.1841C18.165 16.1841 18.8782 15.4709 18.8782 14.5912V11.4054C18.8782 10.5257 18.165 9.8125 17.2853 9.8125C16.4055 9.8125 15.6924 10.5257 15.6924 11.4054Z"></path><path stroke="currentColor" stroke-width="1.5px" vector-effect="non-scaling-stroke" stroke-linecap="round" stroke-linejoin="round" d="M15.3544 19.7447V21.7897C15.3544 22.3544 15.8122 22.8122 16.3769 22.8122C16.9416 22.8122 17.3994 22.3544 17.3994 21.7897V19.7447C17.3994 19.18 16.9416 18.7222 16.3769 18.7222C15.8122 18.7222 15.3544 19.18 15.3544 19.7447Z"></path><path stroke="currentColor" stroke-width="1.5px" vector-effect="non-scaling-stroke" stroke-linecap="round" stroke-linejoin="round" d="M4.04501 18.7222L2 18.7222V22.8122H4.04501"></path><path stroke="currentColor" stroke-width="1.5px" vector-effect="non-scaling-stroke" stroke-linecap="round" stroke-linejoin="round" d="M2 20.5967H3.70418"></path><path stroke="currentColor" stroke-width="1.5px" vector-effect="non-scaling-stroke" stroke-linecap="round" stroke-linejoin="round" d="M6.40167 22.8122L6.40167 21.108M6.40167 21.108V18.7222H7.25376C7.9126 18.7222 8.44669 19.2563 8.44669 19.9151V19.9151C8.44669 20.5739 7.9126 21.108 7.25376 21.108H6.40167Z"></path><path stroke="currentColor" stroke-width="1.5px" vector-effect="non-scaling-stroke" stroke-linecap="round" stroke-linejoin="round" d="M7.76501 21.1069L8.6171 22.8111"></path><path stroke="currentColor" stroke-width="1.5px" vector-effect="non-scaling-stroke" stroke-linecap="round" stroke-linejoin="round" d="M10.9741 22.8122L10.9741 21.108M10.9741 21.108V18.7222H11.8262C12.485 18.7222 13.0191 19.2563 13.0191 19.9151V19.9151C13.0191 20.5739 12.485 21.108 11.8262 21.108H10.9741Z"></path><path stroke="currentColor" stroke-width="1.5px" vector-effect="non-scaling-stroke" stroke-linecap="round" stroke-linejoin="round" d="M12.3375 21.1069L13.1896 22.8111"></path><path stroke="currentColor" stroke-width="1.5px" vector-effect="non-scaling-stroke" stroke-linecap="round" stroke-linejoin="round" d="M19.7977 22.8122L19.7977 21.108M19.7977 21.108V18.7222H20.6498C21.3087 18.7222 21.8427 19.2563 21.8427 19.9151V19.9151C21.8427 20.5739 21.3087 21.108 20.6498 21.108H19.7977Z"></path><path stroke="currentColor" stroke-width="1.5px" vector-effect="non-scaling-stroke" stroke-linecap="round" stroke-linejoin="round" d="M21.1611 21.1069L22.0132 22.8111"></path></svg>
